<svg id="Icons" xmlns="http://www.w3.org/2000/svg" viewBox="0 0 28 26"><path d="M24,29H8a1,1,0,0,1-.73-.31A1,1,0,0,1,7,27.94l.45-8A6.6,6.6,0,0,1,2,13.5,6.59,6.59,0,0,1,8.5,7a4.55,4.55,0,0,1,1.42.15,1,1,0,0,1-.64,1.9A3.41,3.41,0,0,0,8.5,9a4.5,4.5,0,0,0,0,9,1,1,0,0,1,.73.31,1,1,0,0,1,.27.75L9.06,27H22.94l-.44-7.94a1,1,0,0,1,.27-.75A1,1,0,0,1,23.5,18a4.5,4.5,0,0,0,0-9,3.41,3.41,0,0,0-.78.05,1,1,0,0,1-.64-1.9A4.55,4.55,0,0,1,23.5,7,6.59,6.59,0,0,1,30,13.5a6.6,6.6,0,0,1-5.45,6.41l.45,8a1,1,0,0,1-.27.75A1,1,0,0,1,24,29Z" transform="translate(-2 -3)"/><path d="M23,12a1,1,0,0,1-1-1,6,6,0,0,0-12,0,1,1,0,0,1-2,0,7.91,7.91,0,0,1,8-8,7.91,7.91,0,0,1,8,8A1,1,0,0,1,23,12Z" transform="translate(-2 -3)"/><path d="M16,25a1,1,0,0,1-1-1V21a1,1,0,0,1,2,0v3A1,1,0,0,1,16,25Z" transform="translate(-2 -3)"/><path d="M12,24.7l-.18,0a1,1,0,0,1-.8-1.16l.5-2.7a1,1,0,0,1,1.16-.8,1,1,0,0,1,.8,1.16l-.5,2.7A1,1,0,0,1,12,24.7Z" transform="translate(-2 -3)"/><path d="M20,24.7a1,1,0,0,1-1-.82l-.5-2.7a1,1,0,0,1,.8-1.16,1,1,0,0,1,1.16.8l.5,2.7a1,1,0,0,1-.8,1.16Z" transform="translate(-2 -3)"/></svg>