<svg width="56" height="54" viewBox="0 0 56 54" fill="none" xmlns="http://www.w3.org/2000/svg">
<path d="M44.639 5.14702C42.559 4.87802 40.579 5.13502 38.769 5.75902C36.432 2.30902 32.481 0.0410156 28 0.0410156C23.519 0.0410156 19.568 2.30902 17.23 5.75902C15.42 5.13602 13.44 4.87802 11.36 5.14702C4.99499 5.97102 0.0549883 11.509 -1.17039e-05 17.927C-0.0520117 24.07 4.15699 29.24 9.84999 30.656C11.761 31.132 13.163 32.76 13.35 34.72L14.667 48.552C14.855 50.529 18.502 52.039 18.502 52.039C24.575 54.597 31.423 54.597 37.496 52.039C37.496 52.039 41.143 50.529 41.331 48.552L42.648 34.72C42.835 32.76 44.237 31.131 46.148 30.656C51.841 29.239 56.05 24.07 55.998 17.927C55.945 11.509 51.005 5.97102 44.639 5.14702Z" fill="#EDEDED"/>
<path d="M28 49.0411C23.124 49.0411 18.506 47.7401 14.37 45.4241L14.668 48.5531C14.856 50.5301 18.503 52.0401 18.503 52.0401C24.576 54.5981 31.424 54.5981 37.497 52.0401C37.497 52.0401 41.144 50.5301 41.332 48.5531L41.63 45.4241C37.494 47.7401 32.876 49.0411 28 49.0411Z" fill="#E6E6E6"/>
<path d="M18.999 43.041C18.502 43.041 18.071 42.671 18.008 42.165L17.008 34.165C16.94 33.617 17.328 33.117 17.876 33.049C18.418 32.986 18.923 33.369 18.992 33.917L19.992 41.917C20.06 42.465 19.672 42.965 19.124 43.033C19.082 43.038 19.04 43.041 18.999 43.041Z" fill="white"/>
<path d="M25 45.041C24.448 45.041 24 44.594 24 44.041V36.041C24 35.488 24.448 35.041 25 35.041C25.552 35.041 26 35.488 26 36.041V44.041C26 44.594 25.552 45.041 25 45.041Z" fill="white"/>
<path d="M37.0009 43.041C36.9589 43.041 36.9179 43.038 36.8759 43.033C36.3279 42.965 35.9389 42.465 36.0079 41.917L37.0079 33.917C37.0759 33.369 37.5809 32.986 38.1239 33.049C38.6719 33.117 39.0609 33.617 38.9919 34.165L37.9919 42.165C37.9289 42.671 37.4979 43.041 37.0009 43.041Z" fill="white"/>
<path d="M31 45.041C30.448 45.041 30 44.594 30 44.041V36.041C30 35.488 30.448 35.041 31 35.041C31.552 35.041 32 35.488 32 36.041V44.041C32 44.594 31.552 45.041 31 45.041Z" fill="white"/>
<path d="M32.999 7.04102C32.801 7.04102 32.602 6.98202 32.427 6.86002C27.833 3.65202 23.652 6.80002 23.611 6.83302C23.174 7.16802 22.546 7.08902 22.208 6.65202C21.871 6.21402 21.951 5.58702 22.388 5.24902C24.233 3.82702 28.943 1.98702 33.572 5.22202C34.025 5.53702 34.135 6.16102 33.819 6.61402C33.625 6.89102 33.315 7.04102 32.999 7.04102Z" fill="white"/>
<path d="M43.042 5.08503C41.54 5.08503 40.104 5.35403 38.763 5.82403C36.436 2.36103 32.485 0.0820312 28 0.0820312C23.526 0.0820312 19.581 2.35003 17.253 5.79803C15.931 5.34303 14.518 5.08403 13.042 5.08403C5.88498 5.08403 0.0839844 10.886 0.0839844 18.042C0.0839844 25.198 5.88598 31 13.042 31C14.494 31 15.885 30.75 17.189 30.31C19.057 31.355 21.208 31.956 23.5 31.956C25.63 31.956 27.634 31.433 29.406 30.522C31.437 31.843 33.855 32.618 36.458 32.618C38.742 32.618 40.885 32.022 42.749 30.985C42.847 30.987 42.943 31 43.042 31C50.198 31.001 56 25.2 56 18.043C56 10.886 50.198 5.08503 43.042 5.08503Z" fill="#E6E6E6"/>
<path d="M6.00101 17.041C5.93001 17.041 5.85801 17.033 5.78601 17.018C5.24701 16.9 4.90501 16.367 5.02401 15.828C5.03901 15.76 6.60801 9.04102 14.846 9.04102C14.901 9.04102 14.956 9.04102 15.012 9.04202C15.564 9.04802 16.007 9.50102 16.001 10.053C15.995 10.602 15.548 11.042 15.001 11.042C14.947 11.035 14.899 11.041 14.85 11.041C8.19801 11.041 6.99001 16.203 6.97801 16.256C6.87501 16.722 6.46001 17.041 6.00101 17.041Z" fill="white"/>
</svg>
