<svg width="38" height="38" viewBox="0 0 38 38" fill="none" xmlns="http://www.w3.org/2000/svg">
<g clip-path="url(#clip0_403_283)">
<path d="M18.5823 6.79468V17.0084L27.4422 11.8932C25.422 9.06425 22.2306 7.12711 18.5823 6.79468V6.79468ZM21.819 13.6021L19.6532 13.0219L20.4738 9.9591L22.6397 10.5394L21.819 13.6021Z" fill="#94FF92"/>
<path d="M27.4003 26.1641L18.5823 21.073V31.2053C22.2057 30.8751 25.3782 28.9618 27.4003 26.1641ZM22.1992 27.715L19.957 25.4728L21.5424 23.8874L23.7846 26.1296L22.1992 27.715Z" fill="#94FF92"/>
<path d="M16.3401 6.79468C12.6368 7.13212 9.40471 9.12345 7.39014 12.0222L16.3401 17.1894V6.79468ZM13.38 14.1126L11.1379 11.8705L12.7233 10.285L14.9655 12.5272L13.38 14.1126Z" fill="#94FF92"/>
<path d="M18.5823 4.54379C23.0584 4.88773 26.9712 7.2736 29.3902 10.7685L33.3363 8.49027C32.6384 7.44087 31.8313 6.45298 30.9198 5.54147C27.5903 2.21188 23.2445 0.269058 18.5823 0V4.54379Z" fill="#94FF92"/>
<path d="M34.4327 27.6352C35.7806 24.9932 36.4948 22.0516 36.4948 18.9999C36.4948 15.9725 35.7924 13.0531 34.4652 10.4274L30.521 12.7046C31.443 14.6096 31.9604 16.7454 31.9604 18.9999C31.9604 21.2795 31.4309 23.4376 30.4895 25.3586L34.4327 27.6352Z" fill="#94FF92"/>
<path d="M16.3403 31.2053V20.8918L7.43066 26.0359C9.44792 28.9032 12.6617 30.8701 16.3403 31.2053ZM13.1037 24.3977L15.2694 24.9782L14.4487 28.0409L12.283 27.4605L13.1037 24.3977Z" fill="#94FF92"/>
<path d="M5.44249 10.8977C7.85392 7.33212 11.8088 4.89192 16.3402 4.54379V0C13.3309 0.176905 10.4027 1.06345 7.80997 2.5917C5.27201 4.08766 3.11006 6.1615 1.50513 8.6245L5.44249 10.8977Z" fill="#94FF92"/>
<path d="M29.3501 27.2897C26.928 30.7529 23.0338 33.1143 18.5825 33.4563V38.0001C23.2447 37.731 27.5906 35.7882 30.9201 32.4587C31.8145 31.5642 32.6088 30.5964 33.2976 29.5688L29.3501 27.2897Z" fill="#94FF92"/>
<path d="M16.3402 33.4562C11.8336 33.1099 7.89793 30.6941 5.48291 27.1604L1.54346 29.4348C3.14443 31.8719 5.2924 33.9244 7.81004 35.4083C10.4028 36.9366 13.331 37.823 16.3402 38V33.4562Z" fill="#94FF92"/>
<path d="M29.7181 18.9999C29.7181 17.1534 29.3069 15.4014 28.5725 13.8295L19.5464 19.0407L28.5425 24.2345C29.2958 22.6463 29.7181 20.8716 29.7181 18.9999V18.9999ZM24.3145 20.075L23.7343 17.9091L26.797 17.0885L27.3773 19.2544L24.3145 20.075Z" fill="#94FF92"/>
</g>
<defs>
<clipPath id="clip0_403_283">
<rect width="38" height="38" fill="white"/>
</clipPath>
</defs>
</svg>
